<svg width="36" height="31" viewBox="0 0 36 31" fill="none" xmlns="http://www.w3.org/2000/svg">
<g id="Mastercard">
<path id="Left" fill-rule="evenodd" clip-rule="evenodd" d="M14.888 21.4763C12.8561 21.8391 10.6816 21.5104 8.74399 20.3908C4.42067 17.8927 2.91449 12.4031 5.37984 8.12944C7.84519 3.85582 13.3485 2.41649 17.6718 4.91461C19.6094 6.03418 20.9811 7.7546 21.6831 9.69714C23.715 9.33431 25.8896 9.66304 27.8271 10.7826C32.1504 13.2807 33.6566 18.7703 31.1913 23.0439C28.7259 27.3176 23.2226 28.7569 18.8993 26.2588C16.9617 25.1392 15.59 23.4188 14.888 21.4763Z" fill="#ED0006"/>
<path id="Right" fill-rule="evenodd" clip-rule="evenodd" d="M14.8881 21.4762C17.39 21.0295 19.6755 19.5343 21.036 17.1759C22.3965 14.8176 22.5475 12.089 21.6831 9.69712C23.715 9.3343 25.8896 9.66303 27.8272 10.7826C32.1505 13.2807 33.6567 18.7703 31.1913 23.0439C28.726 27.3176 23.2227 28.7569 18.8993 26.2588C16.9618 25.1392 15.59 23.4188 14.8881 21.4762Z" fill="#F9A000"/>
<path id="Middle" fill-rule="evenodd" clip-rule="evenodd" d="M14.8881 21.4762C17.3899 21.0295 19.6755 19.5343 21.0359 17.1759C22.3964 14.8176 22.5475 12.089 21.6831 9.69717C19.1812 10.1439 16.8957 11.6392 15.5352 13.9975C14.1748 16.3558 14.0237 19.0844 14.8881 21.4762Z" fill="#FF5E00"/>
</g>
</svg>
