<svg width="30" height="32" viewBox="0 0 30 32" fill="none" xmlns="http://www.w3.org/2000/svg">
<g id="PayPass icon" clip-path="url(#clip0_2001_93)">
<path id="Vector" d="M24.8823 9.09905C24.883 12.8617 23.8938 16.5579 22.0142 19.8161C20.1346 23.0744 17.4308 25.7798 14.1746 27.6605M19.6226 8.78221C19.6231 11.7171 18.8516 14.6001 17.3855 17.1415C15.9194 19.683 13.8105 21.7932 11.2706 23.2602M14.6448 8.40554C14.6354 10.5446 14.0664 12.6485 12.9951 14.5057C11.9237 16.3628 10.3877 17.9079 8.54143 18.9856M9.58136 8.17735C9.66514 9.562 9.34827 10.9224 8.6668 12.1037C7.98534 13.285 6.96664 14.2398 5.72659 14.8595" stroke="white" stroke-width="2.57143" stroke-linecap="round"/>
</g>
<defs>
<clipPath id="clip0_2001_93">
<rect width="20" height="24" fill="white" transform="matrix(0.865847 0.500309 -0.499691 0.866203 12.4133 0.409241)"/>
</clipPath>
</defs>
</svg>
